<?xml version="1.0" encoding="UTF-8"?>
<!DOCTYPE svg PUBLIC "-//W3C//DTD SVG 1.1//EN" "http://www.w3.org/Graphics/SVG/1.1/DTD/svg11.dtd">
<!-- Creator: CorelDRAW -->
<svg xmlns="http://www.w3.org/2000/svg" xml:space="preserve" width="101.253mm" height="121.752mm" version="1.1" style="shape-rendering:geometricPrecision; text-rendering:geometricPrecision; image-rendering:optimizeQuality; fill-rule:evenodd; clip-rule:evenodd"
viewBox="0 0 2993.05 3598.98"
 xmlns:xlink="http://www.w3.org/1999/xlink"
 xmlns:xodm="http://www.corel.com/coreldraw/odm/2003">
 <defs>
  <style type="text/css">
   <![CDATA[
    .fil0 {fill:#A0A0A0}
   ]]>
  </style>
 </defs>
 <g id="Camada_x0020_1">
  <metadata id="CorelCorpID_0Corel-Layer"/>
  <path class="fil0" d="M1448.2 3593.36l-0.07 -1.09 111.38 0 -0.28 0.85c140.2,0.95 280.69,0.11 420.92,0.11 48.98,0 92.88,0.24 134.53,-0.96l0.07 0 0 0c55.5,-1.6 107.01,-5.73 161.22,-16.36l0 11.37c0,1.04 0.85,1.89 1.88,1.89l0 0c389.12,0 707.48,-318.37 707.48,-707.48l0 -85.59c8.93,-95.35 7.64,-199.5 7.64,-323.07 0,-77.82 -1.17,-138.7 -8.47,-197.78 -9.05,-189.31 -93.21,-359.78 -223.16,-482.1 13.24,-12.47 26,-25.43 38.26,-38.87 11.96,-6.9 27.76,-27.18 44.64,-53.96 76.75,-102.62 126.46,-226.47 138.33,-360.77 9.78,-68.42 10.4,-135.84 10.4,-224.63 0,-121.16 0.82,-221.37 -7.64,-312.3l0 -67.47c0,-389.12 -318.37,-707.48 -707.48,-707.48l-0 0c-0.31,0 -0.6,0.08 -0.86,0.21 -216.56,-40.27 -455.92,-18.87 -711.93,-21.76l0.19 1.16 -112.12 0 0.13 -1.1c-78.43,0.71 -156.96,1.02 -235.53,1.1l-92.14 0c-160.16,-0.15 -320.42,-0.96 -480.32,-0.96 -248.05,0 -524.59,-60.04 -622.1,190.41 -32.05,82.32 -19.28,276.31 -19.28,378.44l0 2025.55c0,141.21 -15.7,704.5 16.13,793.68 91.89,257.49 369.17,198.85 613.65,198.85 271.27,0 543.39,-2.13 814.55,0.13zm50.41 -1071.91l-0.33 124.39 0.04 14.68 0.12 119.84 -0.01 80.25 -0.06 124.14c-2.44,16.65 -114.79,9.21 -145.04,9.21 -43.15,0 -113.65,4.13 -153.39,-1.93l-0.43 -2384.56 297.48 -2.05 1.25 348.25 0.31 124.65 -0.11 572.01c173.02,-1.36 416.16,33.62 519.29,-97.27 52.21,-66.26 77.49,-114.32 78.48,-229.2l-0.01 -615.24c0,-107.7 5.72,-181.36 -45.77,-261.74 -104.96,-163.86 -246.52,-140.11 -476.55,-141.74 -204.86,-1.45 -410.26,0.43 -615.21,0.09 -110.65,-0.18 -171.86,8.46 -243.7,66.74 -150.89,122.41 -112.79,297.12 -113.17,504.96l-0.03 1845.63c0.5,207.22 -37.88,382.4 113.2,504.97 71.85,58.28 133.06,66.92 243.7,66.74 205.06,-0.34 410.15,-0.02 615.21,-0.02 229.25,0.01 372.54,20.72 476.55,-141.63 51.33,-80.12 45.77,-154.37 45.77,-261.74l0.01 -615.23c-1.15,-112.37 -27.36,-163.91 -78.49,-229.2 -17.11,-21.85 -54.8,-48.16 -86.78,-64.18 -40.67,-20.38 -73.88,-29.46 -124.69,-32 -99.99,-5 -206.96,-0.3 -307.87,-1.1l0.23 572.26z"/>
 </g>
</svg>
